<svg width="540" height="116" viewBox="0 0 540 116" fill="none" xmlns="http://www.w3.org/2000/svg">
<path d="M271.387 68.9489C271.401 68.8859 271.401 68.8205 271.387 68.7575C271.363 68.6945 271.327 68.6368 271.281 68.5873C271.235 68.5372 271.18 68.4963 271.119 68.4668C271.054 68.4442 270.985 68.4322 270.915 68.4314C265.938 68.4314 229.125 69.0694 226.028 69.2324C209.343 70.0074 192.839 71.0589 176.515 72.3869C143.403 75.2224 110.468 79.3551 77.708 84.785C70.9442 85.7258 64.2402 87.0607 57.6298 88.783C57.461 91.8897 56.8126 94.9509 55.7079 97.8565C55.6833 97.947 55.6833 98.0425 55.7079 98.133C55.7321 98.2227 55.7809 98.3038 55.8487 98.3669C55.9191 98.432 56.0075 98.474 56.1021 98.4874C56.1915 98.5153 56.2872 98.5153 56.3767 98.4874C60.7082 97.3028 65.1101 96.396 69.5557 95.7725C77.5179 93.9719 85.5577 92.4904 93.6397 91.1719C124.616 86.0539 156 83.1759 187.272 80.9358C215.093 78.4707 243.054 78.0419 270.936 79.6528H272.246C271.54 76.1316 271.251 72.5385 271.387 68.9489Z" fill="white"/>
<path d="M529.496 29.3231C529.13 29.3231 528.842 29.0041 528.518 29.0466C528.17 29.038 527.832 29.165 527.574 29.4011C527.089 29.7921 526.485 30.0046 525.864 30.0036C525.223 30.0041 524.597 29.8088 524.068 29.4436C522.337 28.3341 520.319 27.7644 518.267 27.8061C512.192 27.8061 506.025 32.2862 505.497 42.3592C505.217 47.0952 505.756 51.844 507.088 56.3948C507.356 56.9544 507.468 57.5767 507.412 58.1953C507.412 59.2303 506.187 59.7903 505.25 60.2298C503.469 61.1886 501.557 61.8765 499.576 62.2713C497.584 62.6912 495.509 62.3634 493.74 61.3498C489.903 58.9538 491.29 53.3537 491.945 49.7598C492.965 43.9612 494.233 36.6811 488.763 32.1657C486.61 30.1816 483.858 28.9832 480.948 28.7631C478.031 28.5385 475.123 29.2993 472.683 30.9251C471.05 32.1231 469.093 32.8036 469.902 30.0816C470.985 27.6654 471.782 25.1291 472.275 22.525C472.273 22.4235 472.241 22.3249 472.183 22.2415C472.126 22.1538 472.042 22.0867 471.944 22.0501C470.065 21.5043 468.139 21.1411 466.192 20.9655L460.476 20.2567C459.806 20.0794 459.103 20.0794 458.434 20.2567C457.336 20.7812 456.766 23.9002 456.322 24.9777C455.505 26.8988 454.611 28.9757 453.71 30.6487C451.962 34.3157 449.985 37.8672 447.789 41.2817C444.812 45.8752 440.524 52.2763 434.653 53.5522C434.247 53.616 433.834 53.616 433.428 53.5522C432.807 53.561 432.193 53.4252 431.633 53.1553C431.071 52.8808 430.587 52.4689 430.225 51.9573C427.775 48.5972 429.894 40.1617 432.259 33.4416C432.301 33.2311 432.301 33.0142 432.259 32.8036C432.177 32.6157 432.052 32.4503 431.893 32.3216L423.734 26.8846C423.519 26.8278 423.293 26.8278 423.079 26.8846C422.864 26.8278 422.639 26.8278 422.424 26.8846L421.368 27.5935C417.897 29.7201 406.183 41.544 406.507 28.7135C406.288 27.3059 406.165 25.8848 406.141 24.4602C406.774 20.9696 407.763 17.5537 409.09 14.2667C409.203 14.0081 409.251 13.726 409.231 13.4444C409.208 13.1628 409.119 12.8907 408.971 12.6505C408.825 12.4089 408.625 12.205 408.386 12.055C408.142 11.9057 407.868 11.8136 407.584 11.7857L400.48 10.7862C399.762 10.7082 399.037 10.7082 398.319 10.7862C395.954 11.1052 392.525 21.7028 391.582 24.7013C390.188 29.2444 389.111 33.8798 388.357 38.5738C388.238 39.2447 387.91 39.8602 387.421 40.3318C386.896 40.7816 386.231 41.0323 385.541 41.0407C384.776 41.0675 384.026 40.8159 383.429 40.3318C382.823 39.8701 382.402 39.2028 382.247 38.4533C381.12 32.777 381.12 26.9325 382.247 21.2562C382.859 18.1371 385.105 8.34057 382.247 7.58208C380.613 7.14259 378.938 7.06461 377.269 6.78106C372.778 6.0722 371.961 9.54565 371.06 12.9411C369.555 17.7387 367.768 22.4421 365.709 27.0264C360.648 39.2614 356.36 44.9749 352.115 44.9749C351.131 44.904 350.179 44.5925 349.341 44.0676C348.511 43.5503 347.824 42.8312 347.342 41.9764C345.547 39.3394 349.222 26.5443 350.482 22.9078C350.622 22.5479 350.622 22.1478 350.482 21.7878C350.323 21.4167 350.035 21.1168 349.672 20.9443C347.56 19.9448 344.244 21.2633 342.484 20.6253C342.305 20.5452 342.111 20.5038 341.914 20.5038C341.718 20.5038 341.523 20.5452 341.344 20.6253C340.975 20.7641 340.67 21.0338 340.485 21.3838C336.725 28.9997 331.38 35.7112 324.814 41.062C324.281 41.4547 323.637 41.6636 322.976 41.6574C322.199 41.6585 321.448 41.3737 320.864 40.8564C320.294 40.3673 319.916 39.6881 319.801 38.9424V38.6164C319.801 36.0573 320.294 33.3424 320.505 30.6203C320.921 24.3122 321.808 18.0446 323.159 11.8707C323.406 10.7507 325.891 0.911633 324.342 0.911633H316.204C315.716 0.833944 315.217 0.934512 314.796 1.19518C314.145 1.91678 313.663 2.77694 313.388 3.71166C313.353 3.78351 313.302 3.84651 313.24 3.89597C313.179 3.94999 313.107 3.98884 313.029 4.00939C312.95 4.02314 312.869 4.02314 312.789 4.00939C312.712 3.9985 312.638 3.97198 312.571 3.93141C310.285 2.37119 307.589 1.53437 304.827 1.52834C301.134 1.59329 297.593 3.01809 294.873 5.53345C293.121 7.25615 291.731 9.31506 290.784 11.5883C289.838 13.8616 289.353 16.303 289.36 18.768C289.094 22.5809 289.622 26.4078 290.909 30.0036C291.071 30.5638 291.071 31.1589 290.909 31.7191C290.781 32.3023 290.482 32.8334 290.05 33.2431C286.079 37.02 281.367 39.9176 276.216 41.7496C275.865 41.8133 275.505 41.8133 275.153 41.7496C274.549 41.7597 273.954 41.5922 273.443 41.2675C272.947 40.9426 272.55 40.4864 272.295 39.949C271.992 39.1917 271.992 38.3458 272.295 37.5885C275.474 27.4679 276.681 16.8241 275.85 6.24232C275.843 5.78558 275.701 5.34133 275.442 4.96636C275.171 4.57381 274.805 4.2568 274.379 4.04483L269.93 1.96076C268.458 1.27978 266.79 1.16627 265.241 1.64177C263.696 2.12189 262.395 3.1832 261.608 4.60484C248.134 28.593 240.34 36.1141 237.447 36.1141C236.963 36.118 236.484 36.0214 236.039 35.8305C235.6 35.6056 235.21 35.2947 234.891 34.9161C232.857 32.513 232.202 21.7169 233.096 14.9189C233.427 12.4804 235.208 6.28485 233.87 4.16534C232.533 2.04582 224.409 2.7476 222.853 4.48433C222.531 4.88677 222.292 5.34934 222.149 5.84536C220.192 12.1614 218.066 24.9139 214.883 31.8325C210.23 41.5511 206.717 46.5061 204.147 46.5061H203.662L202.922 46.1871C202.675 45.9926 202.467 45.7519 202.31 45.4782C201.944 44.8828 200.902 43.3516 202.922 33.9662C203.655 31.0676 203.984 28.0808 203.901 25.0911C203.928 24.837 203.855 24.5823 203.697 24.3823C203.493 24.0987 203.084 24.0987 202.718 24.0987C199.128 24.0987 193.249 22.9433 192.433 26.8562C191.739 30.7677 190.736 34.6173 189.434 38.3683C188.251 41.5653 185.717 45.9673 181.64 45.9673C181.3 45.9631 180.965 45.8807 180.662 45.7263C180.364 45.5995 180.108 45.3907 179.923 45.1238C179.028 44.0888 178.008 38.6872 184.006 10.5806C185.315 4.30002 177.846 5.73903 174.009 5.93751C172.838 5.87181 171.674 6.15011 170.658 6.73853C168.658 8.05702 167.638 17.2581 166.582 19.8172C165.816 22.3289 164.775 24.7468 163.477 27.0264C162.395 28.7912 160.69 30.0779 158.704 30.6274C158.073 30.9059 157.369 30.973 156.697 30.8188C156.031 30.6684 155.431 30.3054 154.987 29.7839C154.564 29.2803 154.332 28.6425 154.332 27.9833C154.05 19.0658 151.15 13.5508 145.518 11.1548C143.436 10.2253 141.185 9.74243 138.907 9.73705C126.665 9.73705 118.491 24.3327 116.457 29.9682C115.415 32.4975 114.57 35.1045 113.929 37.7657C113.553 40.5862 112.844 43.3514 111.817 46.0028C110.254 49.1572 104.094 57.5077 99.9687 53.2545C98.9127 52.177 99.2647 50.66 100.419 45.2585C102.053 38.3045 104.749 26.6294 99.7645 23.7868C98.7169 23.1529 97.5161 22.8218 96.2938 22.8299C93.6067 22.6606 90.9187 23.1469 88.4582 24.2476C87.1786 24.8815 86.009 25.7193 84.9945 26.7286C84.1356 27.5651 83.2768 29.4011 81.8476 29.4011C80.4185 29.4011 80.7916 26.4025 81.3619 25.403C81.5388 25.056 81.6351 24.673 81.6435 24.283C81.6786 23.8865 81.6081 23.4876 81.4393 23.1276C79.3273 18.3711 69.4712 23.1276 67.8942 26.2041C66.3173 29.2806 66.2962 32.8816 65.1557 35.8801C62.6561 42.0034 59.1821 47.6754 54.8701 52.6732C51.7356 57.0386 47.6579 60.6307 42.9443 63.1787C41.7693 63.7699 40.4882 64.1172 39.1772 64.2001C37.8662 64.2829 36.5521 64.0994 35.3129 63.6607L34.4962 63.2354C34.3691 63.1628 34.2568 63.0666 34.1654 62.9518L32.9826 61.3143C31.7577 59.8328 30.5327 58.2308 29.3077 56.5578C27.1957 53.5522 21.1483 47.1582 26.4495 42.1182C31.7506 37.0781 36.8195 43.9967 38.6992 47.7891C38.8341 47.9972 39.0211 48.1659 39.2412 48.2782C39.4597 48.3886 39.7008 48.4461 39.9452 48.4461C40.1897 48.4461 40.4308 48.3886 40.6492 48.2782C40.8694 48.1659 41.0563 47.9972 41.1913 47.7891C43.5286 44.8757 47.8723 39.3607 51.3924 34.1647C51.5108 34.0186 51.608 33.8563 51.681 33.6826C51.7023 33.4824 51.7023 33.2804 51.681 33.0801C51.6585 32.8927 51.5882 32.7144 51.4768 32.5626C51.3994 32.3837 51.2723 32.2311 51.1108 32.1231C47.5907 29.9965 41.9587 25.2046 33.9682 25.7433C28.6589 25.8752 23.5102 27.6033 19.1841 30.7054C14.9031 33.7668 11.6651 38.0842 9.91238 43.0681C6.857 52.7441 12.6932 62.6187 16.9524 68.6582C26.8719 82.6938 32.0181 87.5354 26.7099 94.1775C19.3601 103.457 8.8775 91.42 17.4875 83.9769C17.8193 83.735 18.0521 83.3797 18.1422 82.9774C18.2618 82.6283 18.2618 82.2489 18.1422 81.8999C16.5441 79.4614 16.875 78.5398 15.2839 76.1013C15.1649 75.9626 15.0275 75.841 14.8756 75.7398H13.8126L13.2423 76.4487C8.95344 79.1257 5.45147 82.9064 3.09761 87.4007C0.785254 91.8768 -0.266499 96.9047 0.0563115 101.94C1.23904 112.013 9.03942 116.826 18.994 115.975C26.2039 115.349 32.9314 112.068 37.8895 106.76C41.5999 102.492 43.9863 97.2232 44.7536 91.6043C45.5102 86.0097 44.614 80.3146 42.1769 75.2294C42.0997 74.9826 42.0997 74.7178 42.1769 74.4709C42.4852 73.8128 42.9737 73.257 43.5849 72.8689C47.4091 70.5396 51.0777 67.9609 54.5674 65.1493C55.1513 64.6857 55.866 64.4202 56.609 64.3908C56.9697 64.3964 57.3267 64.4635 57.6651 64.5893C58.0076 64.7417 58.3255 64.9448 58.6084 65.1918C58.8562 65.4425 59.0502 65.7417 59.1787 66.0708C59.3402 66.3941 59.4246 66.751 59.4251 67.1129C59.4251 70.6572 60.3191 74.8254 63.7054 74.8254H64.7262C68.8094 74.0669 70.6891 70.4304 73.9557 62.8313C76.2661 57.3139 78.9865 51.9799 82.094 46.8747C82.3845 46.3929 82.7914 45.9929 83.2767 45.7121C83.7756 45.4292 84.3375 45.278 84.91 45.2726C85.3299 45.2738 85.7456 45.3556 86.135 45.5137C86.5142 45.6652 86.8503 45.9087 87.1136 46.2225C87.3948 46.5247 87.5915 46.8965 87.6838 47.3C87.7894 47.7067 87.7894 48.1339 87.6838 48.5405C86.9351 51.6614 86.8273 54.9034 87.367 58.0677C87.911 61.2322 89.0843 64.2533 90.8166 66.9499C91.4394 67.7078 92.217 68.3217 93.0965 68.7498C93.9761 69.1779 94.9369 69.4102 95.9136 69.4309C99.0605 69.4309 104.404 67.3893 112.24 57.8338C112.407 57.6707 112.599 57.5366 112.81 57.4368C113.026 57.3942 113.248 57.3942 113.464 57.4368C113.697 57.4383 113.924 57.5072 114.119 57.6353C114.328 57.7211 114.502 57.8761 114.612 58.0748C116.11 60.2974 118.123 62.1195 120.476 63.3842C122.862 64.6651 125.517 65.353 128.22 65.3903C136.992 65.3903 146.342 58.3513 150.875 48.3208C151.044 47.8923 151.309 47.509 151.65 47.2008C151.98 46.8696 152.386 46.626 152.832 46.4919C155.773 45.5042 158.531 44.0309 160.992 42.1323C161.545 41.6739 162.24 41.4234 162.956 41.4235C163.348 41.3597 163.747 41.3597 164.139 41.4235C164.506 41.5962 164.838 41.8366 165.117 42.1323C165.38 42.4096 165.587 42.7343 165.73 43.0893C165.875 43.4591 165.944 43.8545 165.934 44.2519C165.568 53.6869 168.18 58.8475 173.678 59.6839C174.165 59.7266 174.655 59.7266 175.142 59.6839C179.618 59.2096 183.783 57.1555 186.899 53.8854C187.19 53.5808 187.54 53.3396 187.927 53.1765C188.312 53.0134 188.727 52.9337 189.145 52.9426C189.582 52.9266 190.015 53.0217 190.405 53.2191C190.815 53.4021 191.178 53.6759 191.468 54.0201C192.505 55.2887 193.818 56.3001 195.305 56.9761C196.811 57.6915 198.455 58.0619 200.12 58.0606H200.937C208.857 57.5361 216.425 51.539 223.465 40.1404C223.543 39.984 223.657 39.8481 223.796 39.7435C224.144 39.4532 224.546 39.2362 224.979 39.1055C225.407 39.0063 225.853 39.0063 226.281 39.1055C226.72 39.1462 227.141 39.2974 227.506 39.545C227.899 39.7716 228.225 40.0995 228.45 40.4949C229.409 42.1889 230.824 43.575 232.533 44.4929C234.222 45.3727 236.102 45.8138 238.003 45.7759H241.023C241.584 45.7702 242.135 45.9224 242.614 46.2154C243.103 46.4934 243.5 46.91 243.755 47.4134C245.075 49.9406 247.014 52.0874 249.387 53.6515C251.825 55.2866 254.634 56.2764 257.553 56.5295C258.395 56.572 259.239 56.572 260.081 56.5295C267.404 56.4188 274.628 54.8001 281.306 51.773C284.629 50.3422 287.796 48.5676 290.754 46.4777C292.307 45.3397 293.793 44.1113 295.203 42.7987C296.914 41.1612 297.527 38.8007 300.589 39.0417C303.026 39.4313 305.521 39.2123 307.854 38.4037C308.016 38.3611 308.186 38.3611 308.347 38.4037H308.755C308.755 38.4037 308.995 38.4037 309.037 38.7581C309.079 38.9015 309.079 39.0542 309.037 39.1976V41.9622C309.079 43.1154 308.984 44.2695 308.755 45.4002C308.738 45.6545 308.653 45.8994 308.509 46.1091C308.341 46.3095 308.132 46.4714 307.897 46.584L304.834 47.8742C298.754 50.1176 293.066 53.3164 287.98 57.3518C285.503 59.3804 283.537 61.9696 282.243 64.9083C280.962 67.8233 280.396 71.006 280.595 74.1874C280.634 77.3741 281.818 80.4388 283.927 82.8145C286.037 85.1903 288.93 86.7162 292.071 87.1101C294.816 87.6048 297.643 87.3602 300.265 86.4012C305.285 84.3929 309.46 80.6957 312.078 75.9383C313.899 72.8536 315.158 69.4664 315.796 65.9362C316.046 64.0934 316.194 62.238 316.239 60.3786C316.239 58.3442 316.239 54.3462 318.527 53.2262C319.219 53.0357 319.926 52.9006 320.639 52.8221C326.025 51.9076 326.025 51.9076 331.861 47.0661C331.925 47.038 331.995 47.0235 332.065 47.0235C332.135 47.0235 332.205 47.038 332.269 47.0661C333.677 47.0661 333.86 47.7749 334.149 48.9446C334.718 51.3573 335.996 53.5412 337.817 55.211C339.663 56.9065 341.96 58.0226 344.427 58.4221C345.999 58.7573 347.601 58.9307 349.208 58.9396C353.16 58.7191 356.978 57.4204 360.253 55.1826C363.493 52.976 366.055 49.9021 367.653 46.3076C367.914 45.8405 368.296 45.4534 368.758 45.1876C369.227 44.9078 369.761 44.7563 370.307 44.7481C370.985 44.7521 371.644 44.9758 372.186 45.3861C372.752 45.7476 373.172 46.3006 373.369 46.9456C376.565 56.5578 381.571 62.4698 387.203 62.4698C391.814 62.4698 394.426 57.0328 395.897 53.5168C396.601 51.7588 399.657 42.5577 400.262 40.6437C400.289 40.5748 400.33 40.5121 400.382 40.4594C400.435 40.4061 400.5 40.3671 400.572 40.346C400.643 40.3249 400.719 40.3249 400.79 40.346C400.866 40.3536 400.939 40.3804 401.001 40.424C401.161 40.4741 401.303 40.5702 401.41 40.7004C402.048 41.5818 402.754 42.4114 403.522 43.1815C404.73 43.9991 406.149 44.4426 407.605 44.4574C409.014 44.4001 410.399 44.0754 411.688 43.5005C412.07 43.3183 412.491 43.2354 412.913 43.2594C413.4 43.2627 413.88 43.3715 414.321 43.5784C414.759 43.766 415.139 44.0698 415.419 44.4574C415.729 44.8018 415.953 45.2146 416.074 45.6625C416.205 46.1259 416.205 46.6168 416.074 47.0802C414.483 55.0763 416.074 64.4334 425.627 67.0704C427.103 67.4726 428.625 67.6752 430.154 67.6729C435.667 67.6729 444.072 55.6788 446.888 53.4955C447.405 53.1011 448.036 52.8893 448.684 52.893C448.395 52.893 447.212 64.008 447.135 64.887C446.684 69.9696 450.155 71.2669 454.808 70.9691C459.462 70.6714 460.44 65.766 461.905 62.6895C464.216 57.3097 467.253 52.2766 470.93 47.7324C471.186 47.4159 471.505 47.1574 471.866 46.9739C472.29 46.7965 472.748 46.7153 473.207 46.7361C473.666 46.7569 474.114 46.8793 474.521 47.0944C474.981 47.3036 475.387 47.6193 475.703 48.016C476.022 48.3811 476.246 48.8192 476.358 49.2919C476.48 49.7565 476.48 50.2451 476.358 50.7097C475.253 55.6717 474.028 64.7453 478.231 69.8491C479.428 71.172 480.916 72.1961 482.574 72.8405C484.245 73.4937 486.041 73.7555 487.826 73.6061C493.452 73.3802 498.987 72.1064 504.152 69.8491C506.722 68.8921 509.249 67.7721 511.699 66.5671C513.255 65.8582 514.966 64.3696 516.719 64.6106C517.285 64.7068 517.845 64.8394 518.394 65.0075C520.433 65.3616 522.531 65.1154 524.435 64.2987H525.138L525.343 64.5751C525.357 64.6952 525.357 64.8166 525.343 64.9367C525.054 66.8152 524.561 70.4942 524.484 71.1393C524.441 71.684 524.227 72.2007 523.871 72.6137C523.502 73.0443 523.011 73.351 522.463 73.4927L520.26 74.0173C514.015 75.5768 507.771 76.6117 503.033 80.8933C501.375 82.5327 499.997 84.4369 498.957 86.5288C498.098 88.1663 497.971 90.0093 497.725 90.0093C477.308 87.4929 372.348 71.5362 325.335 70.5793C325.115 70.578 324.899 70.6422 324.715 70.7636C324.534 70.8806 324.394 71.0516 324.314 71.2527C323.546 73.7659 322.389 76.1415 320.885 78.2917C320.784 78.4358 320.724 78.6048 320.71 78.7808C320.696 78.9567 320.73 79.1331 320.808 79.2912C320.884 79.4536 321.007 79.5894 321.16 79.6811C321.308 79.7835 321.481 79.8424 321.66 79.8513C380.428 81.8318 439.024 87.3901 497.126 96.4955C497.126 96.4955 497.696 100.132 497.83 100.494C498.436 102.195 499.288 103.798 500.358 105.25C500.816 105.84 501.338 106.378 501.913 106.852C505.304 110.04 509.718 111.899 514.353 112.091C522.027 112.091 535.002 105.371 535.818 60.3857C536.035 51.487 537.408 42.6551 539.901 34.115C539.988 33.8576 540.019 33.5845 539.993 33.314C539.971 33.0397 539.889 32.7736 539.754 32.5343C539.618 32.2944 539.436 32.0846 539.219 31.9175C538.996 31.7486 538.742 31.6258 538.472 31.556L529.496 29.3231ZM139.231 48.6752C139.019 49.4428 138.689 50.1723 138.253 50.8373C137.102 52.2271 135.721 53.4049 134.169 54.3178C132.861 55.1642 131.357 55.6528 129.804 55.7355C129.357 55.7781 128.907 55.7781 128.46 55.7355C124.377 54.736 122.257 49.8165 123.152 42.2174C123.356 40.183 123.644 37.5034 125.763 38.2194C129.104 41.8747 133.308 44.6204 137.985 46.2013C138.206 46.2701 138.414 46.3781 138.597 46.5202C138.769 46.6608 138.909 46.8374 139.006 47.0377C139.052 47.2717 139.052 47.5126 139.006 47.7466C139.169 48.0276 139.247 48.3502 139.231 48.6752ZM144.215 31.9246C144.126 32.11 143.999 32.2743 143.842 32.4067C143.714 32.5721 143.565 32.7199 143.399 32.8462C143.196 32.8816 142.989 32.8816 142.786 32.8462C142.572 32.9029 142.346 32.9029 142.132 32.8462L139.801 31.9884C136.788 30.4383 134.037 28.4192 131.649 26.0056C131.374 25.7301 131.152 25.4056 130.994 25.0486C130.917 24.665 130.917 24.2697 130.994 23.8861C131.009 23.4712 131.107 23.0636 131.283 22.6881C131.47 22.2924 131.733 21.9381 132.057 21.646C133.425 20.2217 135.274 19.3666 137.239 19.2501C137.645 19.1863 138.058 19.1863 138.464 19.2501C143.842 20.8876 145.025 27.6431 144.215 31.9246ZM265.304 26.4026C265.182 30.2508 264.324 34.0393 262.777 37.5601C262.327 38.8617 261.634 40.0647 260.735 41.1045C258.658 43.3374 252.942 44.0605 252.576 40.0199C252.47 39.5869 252.47 39.1345 252.576 38.7014C252.716 38.2879 252.958 37.9171 253.28 37.6239C257.134 32.8325 260.602 27.7384 263.65 22.3904C265.227 19.8455 265.347 25.6441 265.304 26.4026ZM305.144 61.6333V61.8743C305.144 66.1276 303.222 73.5919 298.245 74.8679C297.682 75.0329 297.09 75.0695 296.512 74.9751C295.933 74.8807 295.383 74.6576 294.901 74.3221C294.426 73.9876 294.034 73.5488 293.753 73.039C293.479 72.5306 293.325 71.9654 293.303 71.3874C292.69 65.7164 297.632 61.2718 302.082 58.6773C304.898 57.0328 305.221 59.0743 305.144 61.6333ZM310.241 17.6835C310.164 20.239 309.625 22.759 308.65 25.1195L308.446 25.5236C308.108 26.2016 307.588 26.7711 306.946 27.1681C304.053 28.8836 300.61 26.2041 299.603 23.6238C299.062 22.2021 298.916 20.6586 299.181 19.1595C299.447 17.6605 300.114 16.2629 301.11 15.1174C302.743 13.3168 306.784 10.3183 309.276 12.2394C311.156 13.1538 310.34 15.7837 310.213 17.4708L310.241 17.6835ZM521.823 85.6569C520.922 89.6549 517.739 98.8986 512.516 99.3735C511.954 99.4441 511.385 99.3884 510.847 99.2105C510.324 99.0334 509.844 98.7458 509.439 98.3669C509.034 97.988 508.717 97.5229 508.513 97.0055C508.308 96.4881 508.221 95.9312 508.256 95.3755C508.812 92.4038 510.122 89.6273 512.058 87.3156C514.011 84.9714 516.523 83.1642 519.359 82.0629C522.379 80.9004 522.337 82.9419 521.851 85.423L521.823 85.6569ZM525.209 43.1956C525.16 43.9755 525.052 44.7504 524.885 45.5137C524.432 47.9541 523.501 50.2794 522.146 52.3542C521.365 52.8866 520.427 53.1364 519.486 53.063C518.545 52.9896 517.656 52.5974 516.965 51.9502C515.798 50.8819 514.978 49.4834 514.614 47.938C514.25 46.4013 514.358 44.7896 514.923 43.3162C515.468 42.2581 516.22 41.3223 517.134 40.5658C518.056 39.7991 519.121 39.2256 520.267 38.8786C523.371 37.4396 525.737 39.5592 525.188 43.1602L525.209 43.1956Z" fill="white"/>
<path d="M428.845 21.965C430.146 23.0935 431.783 23.7543 433.498 23.8435C434.283 23.8596 435.057 23.6663 435.744 23.2835C436.414 22.9155 436.966 22.3621 437.335 21.6886C437.778 20.6909 437.941 19.5902 437.807 18.5058C437.665 17.4185 437.235 16.3899 436.561 15.5285L436.279 15.2095C435.003 14.0622 433.37 13.3981 431.661 13.331C430.877 13.3003 430.1 13.4945 429.422 13.891C428.751 14.2609 428.197 14.8137 427.824 15.486C427.388 16.4781 427.225 17.5702 427.352 18.6475C427.481 19.7256 427.899 20.7478 428.563 21.6035L428.845 21.965Z" fill="white"/>
<path d="M345.054 13.65C346.303 14.6461 347.834 15.2193 349.426 15.2875C350.302 15.2803 351.161 15.0354 351.911 14.5786C352.674 14.1411 353.308 13.5075 353.748 12.7427C354.199 11.7692 354.371 10.6889 354.247 9.62236C354.123 8.55583 353.706 7.54511 353.044 6.7031L352.756 6.38411C351.583 5.4653 350.157 4.93529 348.673 4.86713C347.783 4.87532 346.911 5.11984 346.145 5.576C345.387 6.00521 344.764 6.64171 344.35 7.41197C343.88 8.41437 343.707 9.53199 343.852 10.6309C343.997 11.7297 344.453 12.7633 345.167 13.6075L345.054 13.65Z" fill="white"/>
</svg>
