<svg width="5000" height="400" viewBox="0 0 5000 400" fill="none" xmlns="http://www.w3.org/2000/svg">
<g clip-path="url(#clip0_2024_67002)">
<path fill-rule="evenodd" clip-rule="evenodd" d="M3357.69 -73H1679.22V0H-157V400H1679.22H1679.26H3340.29H3357.69H5154.29V0H3357.69V-73Z" fill="url(#paint0_linear_2024_67002)"/>
<path d="M2183.16 -72C2016.01 59.4038 1614.93 469 1614.93 469L1817.02 -72H2183.16Z" fill="url(#paint1_linear_2024_67002)"/>
<path d="M2739.38 -72C2464.15 109.123 2047.23 400 2047.23 400H1908.05L2490.19 -72H2739.38Z" fill="url(#paint2_linear_2024_67002)"/>
<path d="M2921.98 31C2745.01 122.55 2530.39 239.52 2530.39 239.52C2587.47 188.493 2761.9 63.7367 2830.16 31H2921.98Z" fill="url(#paint3_linear_2024_67002)"/>
<path d="M2428.15 400.108C2489.74 338.481 2613.76 335.667 2679.19 352.27C2731.86 295.238 2838.79 278.167 2904.89 315.875C2976.33 356.678 2991.35 400.108 2991.35 400.108H2428.15Z" fill="#7269FF"/>
<path d="M2314.55 342.045C2288.73 292.987 2222.36 299.46 2178.8 329.476C2100.12 307.996 1965.4 338.856 1970.94 400.109H2526.16C2503.35 342.514 2383.37 314.655 2314.55 342.045Z" fill="#7269FF"/>
<path d="M2628.5 400.108C2612.82 375.157 2565.5 363.901 2530.39 370.655C2513.21 337.824 2460.26 319.627 2421.48 356.022C2386.47 352.926 2340.09 364.464 2335.68 400.108H2628.5Z" fill="#7A73FF"/>
<path d="M2670.27 385.381H2492.93C2516.21 374.688 2556.96 372.531 2576.67 379.003C2603.62 365.589 2645.49 365.214 2670.27 385.381Z" fill="#8088FF"/>
<path d="M2243.29 370.561H2335.39C2314.65 361.65 2271.83 362.307 2243.29 370.561Z" fill="#8088FF"/>
<path d="M2669.24 112.326C2728.67 64.7688 2764.72 41.2246 2764.72 41.2246C2719.38 49.5729 2692.52 75.9311 2669.24 112.326Z" fill="url(#paint4_linear_2024_67002)"/>
<path d="M2320.75 -73C2271.74 -36.2299 2214 8.23199 2148.75 60.3856C2180.86 10.3894 2214.66 -34.5414 2253.06 -73H2320.75Z" fill="url(#paint5_linear_2024_67002)"/>
<path d="M2753.83 77.4314L2758.15 75.4616C2758.24 75.4616 2758.24 75.3678 2758.15 75.274L2753.83 73.3979H2753.74L2751.77 68.9893H2751.58L2749.7 73.3979C2749.67 73.3979 2749.65 73.4078 2749.63 73.4254C2749.62 73.443 2749.61 73.4668 2749.61 73.4917L2745.29 75.3678C2745.19 75.4616 2745.19 75.5554 2745.29 75.5554L2749.61 77.5252H2749.7L2751.58 81.9339H2751.77L2753.74 77.5252L2753.83 77.4314Z" fill="#5047FF"/>
<path d="M2658.45 322.535L2662.86 320.659C2662.95 320.565 2662.95 320.471 2662.86 320.471L2658.45 318.501L2656.47 314.187C2656.47 314.093 2656.38 314.093 2656.29 314.187L2654.41 318.501H2654.31L2650 320.471C2649.9 320.471 2649.9 320.565 2650 320.659L2654.31 322.535H2654.41L2656.29 326.85C2656.38 326.944 2656.47 326.944 2656.47 326.85L2658.45 322.535V322.535Z" fill="#8088FF"/>
<path d="M2217.1 56.3262H2216.82L2208.56 68.0513V68.3327L2216.82 80.0579H2217.1C2219.92 76.0245 2222.45 72.3662 2225.36 68.3327V68.0513C2222.45 64.0179 2219.92 60.3596 2217.1 56.3262Z" fill="#584FFF"/>
<path d="M2241.04 84.3731L2243.76 83.1537C2243.86 83.1537 2243.86 83.0599 2243.76 83.0599L2241.04 81.7466L2239.73 79.0264C2239.73 78.9326 2239.73 78.9326 2239.63 79.0264L2238.41 81.7466L2235.6 83.0599L2238.41 84.2793L2239.63 87.0933H2239.73L2241.04 84.2793V84.3731Z" fill="#5047FF"/>
</g>
<defs>
<linearGradient id="paint0_linear_2024_67002" x1="2510" y1="-41.5308" x2="2510" y2="470.499" gradientUnits="userSpaceOnUse">
<stop stop-color="#4E1BF5"/>
<stop offset="0.58" stop-color="#5E4EEE"/>
<stop offset="0.92" stop-color="#6668EB"/>
</linearGradient>
<linearGradient id="paint1_linear_2024_67002" x1="1892.58" y1="99.2659" x2="1929.2" y2="-55.7263" gradientUnits="userSpaceOnUse">
<stop stop-color="#5521FF"/>
<stop offset="1" stop-color="#4B1AEB"/>
</linearGradient>
<linearGradient id="paint2_linear_2024_67002" x1="2593.38" y1="-55.7229" x2="2073.39" y2="339.849" gradientUnits="userSpaceOnUse">
<stop stop-color="#5625F7"/>
<stop offset="0.3" stop-color="#5930F9"/>
<stop offset="0.81" stop-color="#624DFD"/>
<stop offset="1" stop-color="#6659FF"/>
</linearGradient>
<linearGradient id="paint3_linear_2024_67002" x1="2843.6" y1="49.7696" x2="2556.49" y2="230.488" gradientUnits="userSpaceOnUse">
<stop stop-color="#5323F5"/>
<stop offset="1" stop-color="#5946F5"/>
</linearGradient>
<linearGradient id="paint4_linear_2024_67002" x1="2749.82" y1="57.3092" x2="2669.72" y2="98.4488" gradientUnits="userSpaceOnUse">
<stop stop-color="#5323F5"/>
<stop offset="1" stop-color="#5330F5"/>
</linearGradient>
<linearGradient id="paint5_linear_2024_67002" x1="71262.8" y1="1875.76" x2="49579.3" y2="19460" gradientUnits="userSpaceOnUse">
<stop stop-color="#5323F5"/>
<stop offset="1" stop-color="#5330F5"/>
</linearGradient>
<clipPath id="clip0_2024_67002">
<rect width="5000" height="400" fill="white"/>
</clipPath>
</defs>
</svg>
