<svg xmlns="http://www.w3.org/2000/svg" id="Layer_2" data-name="Layer 2" viewBox="0 0 713 201">
  <defs>
    <pattern id="Lootbox_Background" width="740" height="660" x="0" y="0" patternTransform="translate(0 201)" patternUnits="userSpaceOnUse">
      <path d="M0 0h740v660H0z" style="fill:none;stroke-width:0"/>
      <path d="m603.23 484.76 4.87 4.86 4.87-4.86-4.87-4.87-4.87 4.87zM680.83 565.21l4.86 4.87 4.87-4.87-4.87-4.86-4.86 4.86zM678.14 454.3l2.69 2.68 2.68-2.68-2.68-2.68-2.69 2.68z" class="cls-8"/>
      <path d="m653.14 502.3 14.69 14.68 14.68-14.68-14.68-14.68-14.69 14.68z" class="cls-1"/>
      <path d="m604.14 613.8 14.68 14.68 14.69-14.68-14.69-14.68-14.68 14.68z" class="cls-5"/>
      <path d="m552.05 448.96 5.34 5.34 5.35-5.34-5.35-5.34-5.34 5.34z" class="cls-7"/>
      <path d="m206.33 484.76-4.87 4.86-4.86-4.86 4.86-4.87 4.87 4.87z" class="cls-2"/>
      <path d="m485.55 474.84-4.4 4.4-4.4-4.4 4.4-4.4 4.4 4.4zM398.25 624.64l-4.4 4.39-4.4-4.39 4.4-4.4 4.4 4.4z" class="cls-8"/>
      <path d="m306.31 516.98-4.4 4.4-4.4-4.4 4.4-4.39 4.4 4.39zM170.28 557.93l4.4-4.4 4.4 4.4-4.4 4.4-4.4-4.4zM84.61 582.12l3.88-3.87 3.88 3.87-3.88 3.88-3.88-3.88z" class="cls-1"/>
      <path d="m126.14 461.35-2.68 2.68-2.69-2.68 2.69-2.69 2.68 2.69zM346.91 636.71l2.69-2.68 2.68 2.68-2.68 2.68-2.69-2.68z" class="cls-8"/>
      <path d="m155.5 490.16-14.68 14.68-14.68-14.68 14.68-14.69 14.68 14.69zM322.05 588.71l14.68-14.68 14.69 14.68-14.69 14.68-14.68-14.68z" class="cls-1"/>
      <path d="m330.23 468.94-7.59 7.59-7.59-7.59 7.59-7.59 7.59 7.59zM32.87 621.39l7.59-7.59 7.6 7.59-7.6 7.59-7.59-7.59zM465.28 550.07l-12.59 12.59-12.59-12.59 12.59-12.59 12.59 12.59zM539.54 584.25l-3.71 3.71-3.71-3.71 3.71-3.71 3.71 3.71zM2.51 540.94l12.59-12.59 12.59 12.59-12.59 12.59-12.59-12.59z" class="cls-6"/>
      <path d="m196.51 641.7-14.68 14.68-14.69-14.68 14.69-14.68 14.68 14.68zM257.39 448.96l-5.34 5.34-5.34-5.34 5.34-5.34 5.34 5.34zM220.82 638.32l5.34-5.34 5.35 5.34-5.35 5.35-5.34-5.35z" class="cls-8"/>
      <g class="cls-9">
        <path d="M88.23 491.4c.43.56.31 1.37-.25 1.79l-8.77 6.6c-.44.33-1.05.34-1.53.07-2.3-1.27-5.22-1.59-7.19-.11s-2.47 4.38-1.88 6.94c.12.54-.04 1.12-.49 1.45l-8.77 6.6c-.56.43-1.37.31-1.79-.25l-2.7-3.58a7.682 7.682 0 0 1 1.51-10.75l18.4-13.86a7.682 7.682 0 0 1 10.75 1.51l2.7 3.58ZM94.78 500.09a7.682 7.682 0 0 1-1.51 10.75l-18.4 13.86a7.682 7.682 0 0 1-10.75-1.51l-2.7-3.58c-.43-.56-.31-1.37.25-1.79l8.77-6.6c.44-.33 1.05-.34 1.53-.07 2.3 1.27 5.22 1.59 7.19.11 1.97-1.49 2.47-4.38 1.88-6.94-.12-.54.04-1.12.49-1.45l8.77-6.6c.56-.43 1.37-.31 1.79.25l2.7 3.58Z" class="cls-8"/>
      </g>
      <path d="M510.81 626.36c-.15.35-.55.52-.9.37l-5.46-2.26c-.28-.11-.44-.39-.45-.69-.04-1.41-.69-2.85-1.92-3.36s-2.71.05-3.73 1.02c-.22.21-.53.29-.81.17l-5.46-2.26a.687.687 0 0 1-.37-.9l.92-2.23a4.135 4.135 0 0 1 5.4-2.24l11.45 4.74c2.11.87 3.11 3.29 2.24 5.4l-.92 2.23ZM508.57 631.77a4.135 4.135 0 0 1-5.4 2.24l-11.45-4.74a4.135 4.135 0 0 1-2.24-5.4l.92-2.23c.15-.35.55-.52.9-.37l5.46 2.26c.28.11.44.39.45.69.04 1.41.69 2.85 1.92 3.36s2.71-.05 3.73-1.02c.22-.21.53-.29.81-.17l5.46 2.26c.35.15.52.55.37.9l-.92 2.23ZM602.83 521.89c-.06.28-.33.46-.61.4l-4.34-.88c-.22-.04-.38-.23-.43-.44-.23-1.03-.92-2-1.89-2.2s-1.99.43-2.6 1.29c-.13.18-.35.29-.57.24l-4.34-.88a.514.514 0 0 1-.4-.61l.36-1.77a3.092 3.092 0 0 1 3.65-2.42l9.11 1.84c1.68.34 2.76 1.97 2.42 3.65l-.36 1.77ZM601.96 526.19a3.092 3.092 0 0 1-3.65 2.42l-9.11-1.84a3.092 3.092 0 0 1-2.42-3.65l.36-1.77c.06-.28.33-.46.61-.4l4.34.88c.22.04.38.23.43.44.23 1.03.92 2 1.89 2.2s1.99-.43 2.6-1.29c.13-.18.35-.29.57-.24l4.34.88c.28.06.46.33.4.61l-.36 1.77ZM262.75 530.55c-.24.16-.56.09-.72-.14l-2.45-3.69a.6.6 0 0 1 0-.62c.57-.89.77-2.06.22-2.89s-1.71-1.1-2.75-.93a.55.55 0 0 1-.57-.23l-2.45-3.69a.525.525 0 0 1 .14-.72l1.51-1c1.43-.95 3.35-.56 4.29.87l5.14 7.74c.95 1.43.56 3.35-.87 4.29l-1.51 1ZM259.09 532.98c-1.43.95-3.35.56-4.29-.87l-5.14-7.74c-.95-1.43-.56-3.35.87-4.29l1.51-1c.24-.16.56-.09.72.14l2.45 3.69a.6.6 0 0 1 0 .62c-.57.89-.77 2.06-.22 2.89s1.71 1.1 2.75.93c.22-.04.45.04.57.23l2.45 3.69c.16.24.09.56-.14.72l-1.51 1ZM736.25 492.52c-.15.35-.55.52-.9.37l-5.46-2.26c-.28-.11-.44-.39-.45-.69-.04-1.41-.69-2.85-1.92-3.36s-2.71.05-3.73 1.02c-.22.21-.53.29-.81.17l-5.46-2.26a.687.687 0 0 1-.37-.9l.92-2.23a4.135 4.135 0 0 1 5.4-2.24l11.45 4.74c2.11.87 3.11 3.29 2.24 5.4l-.92 2.23ZM734.02 497.92a4.135 4.135 0 0 1-5.4 2.24l-11.45-4.74a4.135 4.135 0 0 1-2.24-5.4l.92-2.23c.15-.35.55-.52.9-.37l5.46 2.26c.28.11.44.39.45.69.04 1.41.69 2.85 1.92 3.36s2.71-.05 3.73-1.02c.22-.21.53-.29.81-.17l5.46 2.26c.35.15.52.55.37.9l-.92 2.23ZM603.23 264.76l4.87 4.86 4.87-4.86-4.87-4.87-4.87 4.87zM680.83 345.21l4.86 4.87 4.87-4.87-4.87-4.86-4.86 4.86zM678.14 234.3l2.69 2.68 2.68-2.68-2.68-2.68-2.69 2.68z" class="cls-8"/>
      <path d="m653.14 282.3 14.69 14.68 14.68-14.68-14.68-14.68-14.69 14.68z" class="cls-1"/>
      <path d="m604.14 393.8 14.68 14.68 14.69-14.68-14.69-14.68-14.68 14.68z" class="cls-5"/>
      <path d="m552.05 228.96 5.34 5.34 5.35-5.34-5.35-5.34-5.34 5.34z" class="cls-7"/>
      <path d="m206.33 264.76-4.87 4.86-4.86-4.86 4.86-4.87 4.87 4.87z" class="cls-2"/>
      <path d="m485.55 254.84-4.4 4.4-4.4-4.4 4.4-4.4 4.4 4.4zM398.25 404.64l-4.4 4.39-4.4-4.39 4.4-4.4 4.4 4.4z" class="cls-8"/>
      <path d="m306.31 296.98-4.4 4.4-4.4-4.4 4.4-4.39 4.4 4.39zM170.28 337.93l4.4-4.4 4.4 4.4-4.4 4.4-4.4-4.4zM84.61 362.12l3.88-3.87 3.88 3.87-3.88 3.88-3.88-3.88z" class="cls-1"/>
      <path d="m126.14 241.35-2.68 2.68-2.69-2.68 2.69-2.69 2.68 2.69zM346.91 416.71l2.69-2.68 2.68 2.68-2.68 2.68-2.69-2.68z" class="cls-8"/>
      <path d="m155.5 270.16-14.68 14.68-14.68-14.68 14.68-14.69 14.68 14.69zM322.05 368.71l14.68-14.68 14.69 14.68-14.69 14.68-14.68-14.68z" class="cls-1"/>
      <path d="m330.23 248.94-7.59 7.59-7.59-7.59 7.59-7.59 7.59 7.59zM32.87 401.39l7.59-7.59 7.6 7.59-7.6 7.59-7.59-7.59zM465.28 330.07l-12.59 12.59-12.59-12.59 12.59-12.59 12.59 12.59zM539.54 364.25l-3.71 3.71-3.71-3.71 3.71-3.71 3.71 3.71zM2.51 320.94l12.59-12.59 12.59 12.59-12.59 12.59-12.59-12.59z" class="cls-6"/>
      <path d="m196.51 421.7-14.68 14.68-14.69-14.68 14.69-14.68 14.68 14.68zM257.39 228.96l-5.34 5.34-5.34-5.34 5.34-5.34 5.34 5.34zM220.82 418.32l5.34-5.34 5.35 5.34-5.35 5.35-5.34-5.35z" class="cls-8"/>
      <g class="cls-9">
        <path d="M88.23 271.4c.43.56.31 1.37-.25 1.79l-8.77 6.6c-.44.33-1.05.34-1.53.07-2.3-1.27-5.22-1.59-7.19-.11s-2.47 4.38-1.88 6.94c.12.54-.04 1.12-.49 1.45l-8.77 6.6c-.56.43-1.37.31-1.79-.25l-2.7-3.58a7.682 7.682 0 0 1 1.51-10.75l18.4-13.86a7.682 7.682 0 0 1 10.75 1.51l2.7 3.58ZM94.78 280.09a7.682 7.682 0 0 1-1.51 10.75l-18.4 13.86a7.682 7.682 0 0 1-10.75-1.51l-2.7-3.58c-.43-.56-.31-1.37.25-1.79l8.77-6.6c.44-.33 1.05-.34 1.53-.07 2.3 1.27 5.22 1.59 7.19.11 1.97-1.49 2.47-4.38 1.88-6.94-.12-.54.04-1.12.49-1.45l8.77-6.6c.56-.43 1.37-.31 1.79.25l2.7 3.58Z" class="cls-8"/>
      </g>
      <path d="M510.81 406.36c-.15.35-.55.52-.9.37l-5.46-2.26c-.28-.11-.44-.39-.45-.69-.04-1.41-.69-2.85-1.92-3.36s-2.71.05-3.73 1.02c-.22.21-.53.29-.81.17l-5.46-2.26a.687.687 0 0 1-.37-.9l.92-2.23a4.135 4.135 0 0 1 5.4-2.24l11.45 4.74c2.11.87 3.11 3.29 2.24 5.4l-.92 2.23ZM508.57 411.77a4.135 4.135 0 0 1-5.4 2.24l-11.45-4.74a4.135 4.135 0 0 1-2.24-5.4l.92-2.23c.15-.35.55-.52.9-.37l5.46 2.26c.28.11.44.39.45.69.04 1.41.69 2.85 1.92 3.36s2.71-.05 3.73-1.02c.22-.21.53-.29.81-.17l5.46 2.26c.35.15.52.55.37.9l-.92 2.23ZM602.83 301.89c-.06.28-.33.46-.61.4l-4.34-.88c-.22-.04-.38-.23-.43-.44-.23-1.03-.92-2-1.89-2.2s-1.99.43-2.6 1.29c-.13.18-.35.29-.57.24l-4.34-.88a.514.514 0 0 1-.4-.61l.36-1.77a3.092 3.092 0 0 1 3.65-2.42l9.11 1.84c1.68.34 2.76 1.97 2.42 3.65l-.36 1.77ZM601.96 306.19a3.092 3.092 0 0 1-3.65 2.42l-9.11-1.84a3.092 3.092 0 0 1-2.42-3.65l.36-1.77c.06-.28.33-.46.61-.4l4.34.88c.22.04.38.23.43.44.23 1.03.92 2 1.89 2.2s1.99-.43 2.6-1.29c.13-.18.35-.29.57-.24l4.34.88c.28.06.46.33.4.61l-.36 1.77ZM262.75 310.55c-.24.16-.56.09-.72-.14l-2.45-3.69a.6.6 0 0 1 0-.62c.57-.89.77-2.06.22-2.89s-1.71-1.1-2.75-.93a.55.55 0 0 1-.57-.23l-2.45-3.69a.525.525 0 0 1 .14-.72l1.51-1c1.43-.95 3.35-.56 4.29.87l5.14 7.74c.95 1.43.56 3.35-.87 4.29l-1.51 1ZM259.09 312.98c-1.43.95-3.35.56-4.29-.87l-5.14-7.74c-.95-1.43-.56-3.35.87-4.29l1.51-1c.24-.16.56-.09.72.14l2.45 3.69a.6.6 0 0 1 0 .62c-.57.89-.77 2.06-.22 2.89s1.71 1.1 2.75.93c.22-.04.45.04.57.23l2.45 3.69c.16.24.09.56-.14.72l-1.51 1ZM736.25 272.52c-.15.35-.55.52-.9.37l-5.46-2.26c-.28-.11-.44-.39-.45-.69-.04-1.41-.69-2.85-1.92-3.36s-2.71.05-3.73 1.02c-.22.21-.53.29-.81.17l-5.46-2.26a.687.687 0 0 1-.37-.9l.92-2.23a4.135 4.135 0 0 1 5.4-2.24l11.45 4.74c2.11.87 3.11 3.29 2.24 5.4l-.92 2.23ZM734.02 277.92a4.135 4.135 0 0 1-5.4 2.24l-11.45-4.74a4.135 4.135 0 0 1-2.24-5.4l.92-2.23c.15-.35.55-.52.9-.37l5.46 2.26c.28.11.44.39.45.69.04 1.41.69 2.85 1.92 3.36s2.71-.05 3.73-1.02c.22-.21.53-.29.81-.17l5.46 2.26c.35.15.52.55.37.9l-.92 2.23ZM603.23 44.76l4.87 4.86 4.87-4.86-4.87-4.87-4.87 4.87zM680.83 125.21l4.86 4.87 4.87-4.87-4.87-4.86-4.86 4.86zM678.14 14.3l2.69 2.68 2.68-2.68-2.68-2.68-2.69 2.68z" class="cls-8"/>
      <path d="m653.14 62.3 14.69 14.68 14.68-14.68-14.68-14.68-14.69 14.68z" class="cls-1"/>
      <path d="m604.14 173.8 14.68 14.68 14.69-14.68-14.69-14.68-14.68 14.68z" class="cls-5"/>
      <path d="m552.05 8.96 5.34 5.34 5.35-5.34-5.35-5.34-5.34 5.34z" class="cls-7"/>
      <path d="m206.33 44.76-4.87 4.86-4.86-4.86 4.86-4.87 4.87 4.87z" class="cls-2"/>
      <path d="m485.55 34.84-4.4 4.4-4.4-4.4 4.4-4.4 4.4 4.4zM398.25 184.64l-4.4 4.39-4.4-4.39 4.4-4.4 4.4 4.4z" class="cls-8"/>
      <path d="m306.31 76.98-4.4 4.4-4.4-4.4 4.4-4.39 4.4 4.39zM170.28 117.93l4.4-4.4 4.4 4.4-4.4 4.4-4.4-4.4zM84.61 142.12l3.88-3.87 3.88 3.87-3.88 3.88-3.88-3.88z" class="cls-1"/>
      <path d="m126.14 21.35-2.68 2.68-2.69-2.68 2.69-2.69 2.68 2.69zM346.91 196.71l2.69-2.68 2.68 2.68-2.68 2.68-2.69-2.68z" class="cls-8"/>
      <path d="m155.5 50.16-14.68 14.68-14.68-14.68 14.68-14.69 14.68 14.69zM322.05 148.71l14.68-14.68 14.69 14.68-14.69 14.68-14.68-14.68z" class="cls-1"/>
      <path d="m330.23 28.94-7.59 7.59-7.59-7.59 7.59-7.59 7.59 7.59zM32.87 181.39l7.59-7.59 7.6 7.59-7.6 7.59-7.59-7.59zM465.28 110.07l-12.59 12.59-12.59-12.59 12.59-12.59 12.59 12.59zM539.54 144.25l-3.71 3.71-3.71-3.71 3.71-3.71 3.71 3.71zM2.51 100.94 15.1 88.35l12.59 12.59-12.59 12.59-12.59-12.59z" class="cls-6"/>
      <path d="m196.51 201.7-14.68 14.68-14.69-14.68 14.69-14.68 14.68 14.68zM257.39 8.96l-5.34 5.34-5.34-5.34 5.34-5.34 5.34 5.34zM220.82 198.32l5.34-5.34 5.35 5.34-5.35 5.35-5.34-5.35z" class="cls-8"/>
      <g class="cls-9">
        <path d="M88.23 51.4c.43.56.31 1.37-.25 1.79l-8.77 6.6c-.44.33-1.05.34-1.53.07-2.3-1.27-5.22-1.59-7.19-.11s-2.47 4.38-1.88 6.94c.12.54-.04 1.12-.49 1.45l-8.77 6.6c-.56.43-1.37.31-1.79-.25l-2.7-3.58a7.682 7.682 0 0 1 1.51-10.75l18.4-13.86a7.682 7.682 0 0 1 10.75 1.51l2.7 3.58ZM94.78 60.09a7.682 7.682 0 0 1-1.51 10.75L74.87 84.7a7.682 7.682 0 0 1-10.75-1.51l-2.7-3.58c-.43-.56-.31-1.37.25-1.79l8.77-6.6c.44-.33 1.05-.34 1.53-.07 2.3 1.27 5.22 1.59 7.19.11 1.97-1.49 2.47-4.38 1.88-6.94-.12-.54.04-1.12.49-1.45l8.77-6.6c.56-.43 1.37-.31 1.79.25l2.7 3.58Z" class="cls-8"/>
      </g>
      <path d="M510.81 186.36c-.15.35-.55.52-.9.37l-5.46-2.26c-.28-.11-.44-.39-.45-.69-.04-1.41-.69-2.85-1.92-3.36s-2.71.05-3.73 1.02c-.22.21-.53.29-.81.17l-5.46-2.26a.687.687 0 0 1-.37-.9l.92-2.23a4.135 4.135 0 0 1 5.4-2.24l11.45 4.74c2.11.87 3.11 3.29 2.24 5.4l-.92 2.23ZM508.57 191.77a4.135 4.135 0 0 1-5.4 2.24l-11.45-4.74a4.135 4.135 0 0 1-2.24-5.4l.92-2.23c.15-.35.55-.52.9-.37l5.46 2.26c.28.11.44.39.45.69.04 1.41.69 2.85 1.92 3.36s2.71-.05 3.73-1.02c.22-.21.53-.29.81-.17l5.46 2.26c.35.15.52.55.37.9l-.92 2.23ZM602.83 81.89c-.06.28-.33.46-.61.4l-4.34-.88c-.22-.04-.38-.23-.43-.44-.23-1.03-.92-2-1.89-2.2s-1.99.43-2.6 1.29c-.13.18-.35.29-.57.24l-4.34-.88a.514.514 0 0 1-.4-.61l.36-1.77a3.092 3.092 0 0 1 3.65-2.42l9.11 1.84c1.68.34 2.76 1.97 2.42 3.65l-.36 1.77ZM601.96 86.19a3.092 3.092 0 0 1-3.65 2.42l-9.11-1.84a3.092 3.092 0 0 1-2.42-3.65l.36-1.77c.06-.28.33-.46.61-.4l4.34.88c.22.04.38.23.43.44.23 1.03.92 2 1.89 2.2s1.99-.43 2.6-1.29c.13-.18.35-.29.57-.24l4.34.88c.28.06.46.33.4.61l-.36 1.77ZM262.75 90.55c-.24.16-.56.09-.72-.14l-2.45-3.69a.6.6 0 0 1 0-.62c.57-.89.77-2.06.22-2.89s-1.71-1.1-2.75-.93a.55.55 0 0 1-.57-.23l-2.45-3.69a.525.525 0 0 1 .14-.72l1.51-1c1.43-.95 3.35-.56 4.29.87l5.14 7.74c.95 1.43.56 3.35-.87 4.29l-1.51 1ZM259.09 92.98c-1.43.95-3.35.56-4.29-.87l-5.14-7.74c-.95-1.43-.56-3.35.87-4.29l1.51-1c.24-.16.56-.09.72.14l2.45 3.69a.6.6 0 0 1 0 .62c-.57.89-.77 2.06-.22 2.89s1.71 1.1 2.75.93c.22-.04.45.04.57.23l2.45 3.69c.16.24.09.56-.14.72l-1.51 1ZM736.25 52.52c-.15.35-.55.52-.9.37l-5.46-2.26c-.28-.11-.44-.39-.45-.69-.04-1.41-.69-2.85-1.92-3.36s-2.71.05-3.73 1.02c-.22.21-.53.29-.81.17l-5.46-2.26a.687.687 0 0 1-.37-.9l.92-2.23a4.135 4.135 0 0 1 5.4-2.24l11.45 4.74c2.11.87 3.11 3.29 2.24 5.4l-.92 2.23ZM734.02 57.92a4.135 4.135 0 0 1-5.4 2.24l-11.45-4.74a4.135 4.135 0 0 1-2.24-5.4l.92-2.23c.15-.35.55-.52.9-.37l5.46 2.26c.28.11.44.39.45.69.04 1.41.69 2.85 1.92 3.36s2.71-.05 3.73-1.02c.22-.21.53-.29.81-.17l5.46 2.26c.35.15.52.55.37.9l-.92 2.23Z" class="cls-8"/>
    </pattern>
    <style>
      .cls-1{opacity:.2}.cls-1,.cls-2,.cls-5,.cls-6,.cls-7,.cls-8{stroke-width:0;fill:#fff}.cls-2{opacity:.2}.cls-5{opacity:.8}.cls-6{opacity:.5}.cls-9{opacity:.6}.cls-7{opacity:.4}
    </style>
  </defs>
  <path d="M0 0h713v201H0z" style="fill:url(#Lootbox_Background);stroke-width:0"/>
</svg>
