<svg xmlns="http://www.w3.org/2000/svg" width="175" height="167" fill="none" xmlns:v="https://vecta.io/nano"><style><![CDATA[.B{fill:#eee9d6}]]></style><path d="M175 156.8s-3.4-5.5-11.9-9.8c-15-7.5-47.3-14.9-56-17.4s-17.9-3-21.6-1-.5-2.5-.5-2.5l13.7-.3s-3.9-6.9-5.3-8.8c-2.7-3.5-14-20.1-16.6-19l2.5-3.4s1.1 2.1 7.8 12c3.8 5.5 6.2 7.6 6.2 7.6s-2.5-6.3-3.7-11.3l1.1.2s.6 6.4 4.5 13.2c.9 1.5 2.8 5.9 5.8 7.3 9.7 4.3 74 22.2 74 22.2v10.9.1z" fill="#b473f5"/><path d="M87.7 120.2c-3.3-4.2-9.7-8.3-12.5-5.2s-3.3 5.5-4.4 2.3-.8-8.9-13.9-5.8c-11.4 2.7-9.8 10-9.4 11 .6 1.7 3.2 3.6 6.8 5.3 2.2 1 1.8 2.7.5 2.5-3.2-.6-10.9-3.4-9.4 7.3 1.4 9.7 11.6 13.8 15.9 13 3.5-.7 6.2-6.7 7.1-6.6s1.2.9-1.5 3.9c-4.3 4.7-4.7 9.3 0 11.4 4.8 2.3 18.1-.7 17.9-5.5-.2-4.1-.7-8.6 2.3-6.2 3.7 2.8 9.3 1.4 8-7.1-1.6-10.4-7.3-4.8-8.3-5.3s.2-.9 2.5-2.1 5.3-4.3-1.4-12.8h-.2v-.1z" fill="url(#A)"/><path d="M34.4 167s7.6-8.2 4.6-8.5c-6.3-.4-5.2-2.5-4.6-4.2 2.6-8.6 6-11.2-2.1-16.2S21 136.6 15 140.3s-5.4 6.2-2.9 10 2.6 5.2-1.8 2.8S-1.8 151.5.9 167h33.5z" class="B"/><path d="M89.5 86.5c-1.6 0-1.6 10.9.5 17.7 0 0 1.7-.2 2.6-7.3.8-7.1-1.6-10.4-3.1-10.4z" fill="url(#B)"/><path d="M175 114.6s1.8-.7-27-21.6l-46.1-33.8c-1.9-1.6-3.7-6-4.7-9.3-.2-.8-4.5-5.8-8.1-8.4-6.8-4.8.6-.6.6-.6s5.5 5.5 6.5 5.8c.6.2.5-3.6.4-6.3 0-2.7-.8-7.4-2-9.6-2.1-3.8 1.3-.9 1.3-.9s1.2 6 1.6 10.9c.6 8.5 2.4 14.4 5.7 17.2 3.7 3.1 26.4 17.8 35.5 25 9 7.2 25.8 20.6 36.3 24.5v7.2-.1z" fill="#b473f5"/><path d="M74.2 33c-.4-3.3 3.6-2.8 9.3 2a102.98 102.98 0 0 1 7.3 6.9c-.3.7-2.9 0-7.8-2-5.9-2.4-8.5-4.6-8.8-7v.1z" class="B"/><path d="M122.8 18.9c1.2-3.4 5.4-11.8 12-11.3 4.7.3 9 2.1 10.5 7 1.6 5.4-.6 12.7 1.1 13.8 2.2 1.4 12 2.8 11.5 8.2-.5 4.6-3.5 10-9 8.8l-21.5-4.6-4.5-21.8-.1-.1z" fill="url(#C)"/><path d="M125.6 45.2c-3.5-.5-13.3-17.7-14.8-27-1.6-9.3.8-11.2 3.3-10.1 3 1.3 14.3 12.4 16.5 20.1 2 6.7 2.9 11.8 3.8 12.5 1.9 1.4 15 5.2 16.7 4.8 0 0-1.2 3.4-25.5-.3z" class="B"/><path d="M145.3 131.5c2.5 2.1 25.8 14.4 25.8 3.4s-4.2-7.8-6.1-8.9.4-2.4 2.7-4.5 4.5-5.4 1.3-13-7.5-12.4-11.2-12.7c-5.3-.4-6.9 5.4-8.7 4-2.4-1.9 1.6-9.4-4.4-10.8-5-1.2-14.5-1.3-14.9 7s8.2 29.6 15.4 35.5h.1z" fill="url(#D)"/><path d="M170.9 136.8c-1.2 1.9-5.3 1.9-9.9-.8-5.2-3-6-4.1-9-4.1s-6.6-1.5-3.7-3.4 11-4.8 8.4-12.6-8-13.7-12.4-14.1-5.3 1.2-5.9 4.2c-.5 3-1.4 9-2.1 7.5-.8-1.5 1.9-8.1-.5-12.4s-5-8.6-5.7-7.5c-1.2 2.1-2.7 15 8.3 30.4 11.3 15.8 30.6 20.3 32.5 12.8z" class="B"/><path d="M141 137.1c1 0 5.9-4.3 5.4-11.8s-7.8-11.5-10.8 0c-2.9 11.5 5.3 11.8 5.3 11.8h.1z" fill="url(#E)"/><path d="M45.8 151.2c-3 0-16 13.4-27.1 15.8h33.1s5.1-7.9 3-10.8-6.8-5-8.9-5h-.1z" fill="url(#F)"/><path d="M69.2 58.5c.8 0 6.4-6.1 10.1-.8 3.6 5.3 10.4 25-.2 38.6-8.7 11.2-29.5 10.9-32.7 10-1.5-.4-2.9-2-2.1-6.2.9-4.4 3.1-4.8 2.9-5.2-.3-.9-5.2-.4-6.7-5.1-1.7-5 9.1-16.1 12.8-13.9C56.4 77.7 58 81 59 80c1.7-1.5-3.7-1.9-5.8-8.4-2.1-6.6 4.1-14.7 8.9-15.2 5.3-.6 6.4 2 7.2 2h-.1v.1z" fill="url(#G)"/><g class="B"><path d="M72.7 87.2c-1.6-8.2-.2-9.7 3.7-16.2 4-6.7 2.6-13.5.2-15.3 4.9.3 12.6 14.9 9.2 28.6C83 95.7 75 100.7 72.4 101.8c2.9-3.4 1.5-8.1.2-14.7l.1.1z"/><path d="M46.4 106.4c-.2 0-.5-.2-.7-.3 1.5-.4 2.4-2.9 3.8-7.7 1.4-4.9 5.5-7 15.8-7.8 9.3-.7 11 4.2 10.5 7.1l-.7 2.5c-9.9 7.3-26 7-28.8 6.2h.1z"/></g><path d="M164.3 63.9s5.2 6.8 3.3 12.6-5.2 9.7-11.5 8.1-15.1-10-19.1-4.9-4.9 6.5-8 5.6c-3-.9-6.4-10.5-2.7-18.8 0 0-4.6-1.8-6.2-5.9s-2.4-13.5.2-15.3 12.1-3 17.3 2.8c3.5 3.9 3.4 11.1 4.2 11.1s-1.3-4.1 1.8-6.5c3-2.4 13.5-7.3 19.4-3.5s1.9 14 1.3 14.8v-.1z" fill="url(#H)"/><path d="M161.4 84.5c-4.3 1.7-9.7 1.2-15.9-.7s-4.6-1.7-8.2.2-6.8 2-8.1 1.3c0 0 1.6.2 4.5-4.6s3.7-7.8 8.1-7.3c4.7.5 6 1.2 8.8 4.6 3.6 4.3 6.1 6.5 10.9 6.5h-.1z" class="B"/><path d="M104 41.7c-3.8 1.7-4.4 7.3-3 14.1 0 0-13 5.1-11.9 16.3S102.3 84 102.3 84s-3 8.2 2.8 12.2 14.6-2.8 13.8-13.3 3.2-20.1-1.6-27.1S104 41.7 104 41.7z" fill="url(#I)"/><path d="M104 41.7c3.9-1.3 16 1.2 18.5 23.2 2.5 21.9-5.1 30.9-9.5 30.1s-9-12.2-4.4-18.7 10-7.1 9.7-10.3-9.2-4.2-13-8.9c-4.8-5.9-5.4-14-1.3-15.4z" class="B"/><path d="M137 132.8c-.5-4.5-2.1-10.7-4.7-12.2-2.6-1.6-3.5 1.6-4.2 1.5-1 0 1.9-8.5-8.7-12.4-8.3-3.1-14.2.8-14.2 6.3s.8 9.4 3 10.9 3.2.9 3.3 2.2c0 1.2-12-1.2-12.6 15.3-.2 5.9 2.8 10.5 7.5 10.6 3.7 0 5-.5 6.6-1.3s3.1-1.5 2.7 1c-.6 3.2-1 5.9 3.1 6.4 4.1.6 15.6 1.9 18.9-2.1 3.5-4.1 1.1-6.1 0-8.4-1.2-2.3-.7-17.8-.7-17.8z" fill="url(#J)"/><path d="M131.1 120.1c2.6 0 9 7.1 10.9 16.9s-2.6 19.6-3.4 20.8c0 0 1.3-3-.9-7.2-3.3-6.4-4.6-7.4-3.8-16.6.7-8.8 0-13.3-2.8-13.9zM95 31.8c2.7-.2 3.1-10.6.3-18.7-3.9-11.2-9.5-10-9.5-10s-3.3-4.7-6.1-1c-.3.4-.8.7-1.3.7-1.7 0-5 1.3-2.3 9.5 3.5 10.6 13.8 19.9 19.1 19.5H95z" class="B"/><path d="M95 31.8c2.7-.2 3.1-10.6.3-18.7-3.9-11.2-9.5-10-9.5-10-2.6 3.2-2.9 8.2-7.9 13.5 4.4 8.7 12.6 15.5 17.2 15.2H95z" fill="url(#K)"/><path d="M78.2 2.8c-1.7 0-5 1.3-2.3 9.5.5 1.5 1.3 2.9 2 4.3 0 0-.9-10.5 1.7-14.3-.3.4-.9.6-1.4.6v-.1z" fill="url(#L)"/><path d="M95.5 31.6c-8.6-6.5-13.3-19.5-11.8-25.2-.8 1.8-2.4 3.5-3 6.2 1.4 9 10.8 16.4 14.7 19.1l.1-.1z" class="B"/><defs><linearGradient id="A" x1="222.3" y1="70.4" x2="-142.7" y2="223.2" href="#M"><stop stop-color="#f2dbdf"/><stop offset=".5" stop-color="#f9c3f0"/><stop offset=".8" stop-color="#fdb5fb"/><stop offset="1" stop-color="#ffb0ff"/></linearGradient><linearGradient id="B" x1="88.8" y1="79.8" x2="94.8" y2="128.9" href="#M"><stop stop-color="#f2dbdf"/><stop offset=".5" stop-color="#f9c3f0"/><stop offset=".8" stop-color="#fdb5fb"/><stop offset="1" stop-color="#ffb0ff"/></linearGradient><linearGradient id="C" x1="153.4" y1="14.6" x2="126.6" y2="42.3" href="#M"><stop offset=".2" stop-color="#eee9d6"/><stop offset=".3" stop-color="#f2dbdf"/><stop offset=".6" stop-color="#f9c3f0"/><stop offset=".8" stop-color="#fdb5fb"/><stop offset="1" stop-color="#ffb0ff"/></linearGradient><linearGradient id="D" x1="171.1" y1="113.9" x2="129.9" y2="113.9" href="#M"><stop offset=".2" stop-color="#eee9d6"/><stop offset=".3" stop-color="#f2dbdf"/><stop offset=".6" stop-color="#f9c3f0"/><stop offset=".8" stop-color="#fdb5fb"/><stop offset="1" stop-color="#ffb0ff"/></linearGradient><linearGradient id="E" x1="142.8" y1="146.4" x2="138.4" y2="107" href="#M"><stop offset=".2" stop-color="#eee9d6"/><stop offset=".3" stop-color="#f2dbdf"/><stop offset=".6" stop-color="#f9c3f0"/><stop offset=".8" stop-color="#fdb5fb"/><stop offset="1" stop-color="#ffb0ff"/></linearGradient><linearGradient id="F" x1="54.6" y1="129.4" x2="21.1" y2="194.7" href="#M"><stop offset=".2" stop-color="#eee9d6"/><stop offset=".3" stop-color="#f2dbdf"/><stop offset=".6" stop-color="#f9c3f0"/><stop offset=".8" stop-color="#fdb5fb"/><stop offset="1" stop-color="#ffb0ff"/></linearGradient><linearGradient id="G" x1="36.677" y1="74.021" x2="80.899" y2="86.43" href="#M"><stop offset=".2" stop-color="#eee9d6"/><stop offset=".3" stop-color="#f2dbdf"/><stop offset=".6" stop-color="#f9c3f0"/><stop offset=".8" stop-color="#fdb5fb"/><stop offset="1" stop-color="#ffb0ff"/></linearGradient><linearGradient id="H" x1="164.8" y1="43.1" x2="119.8" y2="84.9" href="#M"><stop offset=".2" stop-color="#eee9d6"/><stop offset=".3" stop-color="#f2dbdf"/><stop offset=".6" stop-color="#f9c3f0"/><stop offset=".8" stop-color="#fdb5fb"/><stop offset="1" stop-color="#ffb0ff"/></linearGradient><linearGradient id="I" x1="85.8" y1="70.2" x2="117.5" y2="69.2" href="#M"><stop offset=".2" stop-color="#eee9d6"/><stop offset=".3" stop-color="#f2dbdf"/><stop offset=".6" stop-color="#f9c3f0"/><stop offset=".8" stop-color="#fdb5fb"/><stop offset="1" stop-color="#ffb0ff"/></linearGradient><linearGradient id="J" x1="94.7" y1="160.5" x2="133.1" y2="125.2" href="#M"><stop offset=".2" stop-color="#eee9d6"/><stop offset=".3" stop-color="#f2dbdf"/><stop offset=".6" stop-color="#f9c3f0"/><stop offset=".8" stop-color="#fdb5fb"/><stop offset="1" stop-color="#ffb0ff"/></linearGradient><linearGradient id="K" x1="83.508" y1="-2.239" x2="90.553" y2="34.884" href="#M"><stop stop-color="#f2dbdf"/><stop offset=".5" stop-color="#f9c3f0"/><stop offset=".8" stop-color="#fdb5fb"/><stop offset="1" stop-color="#ffb0ff"/></linearGradient><linearGradient id="L" x1="81.123" y1="11.781" x2="69.148" y2=".219" href="#M"><stop stop-color="#f2dbdf"/><stop offset=".5" stop-color="#f9c3f0"/><stop offset=".8" stop-color="#fdb5fb"/><stop offset="1" stop-color="#ffb0ff"/></linearGradient><linearGradient id="M" gradientUnits="userSpaceOnUse"/></defs></svg>